{"title":"VA - Dream Dance vol. 69 (2013) [FLAC]","uid":10123832,"size":1901429345,"categoryP":"audio","categoryS":"flac","magnet":"?xt=urn:btih:78e36fa4380ef605ad15cc2f21c7ee658cc85cab&amp;dn=VA+-+Dream+Dance+vol.+69+%282013%29+%5BFLAC%5D&amp;tr=udp%3A%2F%2Ftracker.openbittorrent.com%3A80&amp;tr=udp%3A%2F%2Fopen.demonii.com%3A1337&amp;tr=udp%3A%2F%2Ftracker.coppersurfer.tk%3A6969&amp;tr=udp%3A%2F%2Fexodus.desync.com%3A6969","seeders":1,"leechers":0,"uploader":"kxmp","files":12,"time":1399730125,"description":"REM GENRE Trance\nREM DATE 2013\nREM DISCID 3D118E15\nREM COMMENT &quot;ExactAudioCopy v1.0b3&quot;\nPERFORMER &quot;Various&quot;\nTITLE &quot;Dream Dance Vol. 69 CD 1&quot;\nFILE &quot;Various - Dream Dance Vol. 69- CD 1.flac&quot; WAVE\n  TRACK 01 AUDIO\n    TITLE &quot;Typhoon (Edit)&quot;\n    PERFORMER &quot;Dream Dance Alliance&quot;\n    INDEX 01 00:00:00\n  TRACK 02 AUDIO\n    TITLE &quot; Beautiful Life (Radio Edit)&quot;\n    PERFORMER &quot;Armin van Buuren feat. Cindy Alma&quot;\n    INDEX 00 03:15:18\n    INDEX 01 03:16:18\n  TRACK 03 AUDIO\n    TITLE &quot;Steal You Away (Radio Edit)&quot;\n    PERFORMER &quot;Dash Berlin &amp; Alexander Popov feat. Jonathan Mendelsohn&quot;\n    INDEX 00 06:16:01\n    INDEX 01 06:17:01\n  TRACK 04 AUDIO\n    TITLE &quot;We Are Tonight (Radio Edit)&quot;\n    PERFORMER &quot;Christian Burns &amp; Paul van Dyk&quot;\n    INDEX 00 09:17:07\n    INDEX 01 09:18:07\n  TRACK 05 AUDIO\n    TITLE &quot;Paradise (Radio Edit)&quot;\n    PERFORMER &quot; TiEsto &amp; DYRO&quot;\n    INDEX 00 12:56:17\n    INDEX 01 12:57:17\n  TRACK 06 AUDIO\n    TITLE &quot;Bright Eyed (Edit)&quot;\n    PERFORMER &quot;DJ SHOG vs. Aboutblank &amp; KLC&quot;\n    INDEX 00 15:53:45\n    INDEX 01 15:54:45\n  TRACK 07 AUDIO\n    TITLE &quot;If I Lose Myself&quot;\n    PERFORMER &quot;Alesso vs. OneRepublic&quot;\n    INDEX 00 19:28:73\n    INDEX 01 19:29:73\n  TRACK 08 AUDIO\n    TITLE &quot;Reload (Radio Edit)&quot;\n    PERFORMER &quot;Sebastian Ingrosso &amp; Tommy Trash FEAT. John Martin&quot;\n    INDEX 00 23:03:07\n    INDEX 01 23:04:07\n  TRACK 09 AUDIO\n    TITLE &quot;Atmosphere&quot;\n    PERFORMER &quot;Kaskade&quot;\n    INDEX 00 26:44:72\n    INDEX 01 26:45:72\n  TRACK 10 AUDIO\n    TITLE &quot;Neon (Original Radio Edit)&quot;\n    PERFORMER &quot;Sander van Doorn&quot;\n    INDEX 00 30:36:68\n    INDEX 01 30:37:68\n  TRACK 11 AUDIO\n    TITLE &quot;Never Say Goodbye (Edit)&quot;\n    PERFORMER &quot;Hardwell feat. Bright Lights &quot;\n    INDEX 00 33:42:37\n    INDEX 01 33:43:37\n  TRACK 12 AUDIO\n    TITLE &quot;So Get Up (Radio Edit)&quot;\n    PERFORMER &quot;Cosmic Gate&quot;\n    INDEX 00 37:47:12\n    INDEX 01 37:48:12\n  TRACK 13 AUDIO\n    TITLE &quot;Legacy (Original Mix Edi)&quot;\n    PERFORMER &quot;Nicky Romero VS. Krewella&quot;\n    INDEX 00 41:29:36\n    INDEX 01 41:30:36\n  TRACK 14 AUDIO\n    TITLE &quot;The Edge (Radio Edit)&quot;\n    PERFORMER &quot;Dave 202 feat. Robbie Hazen&quot;\n    INDEX 00 44:58:05\n    INDEX 01 44:59:05\n  TRACK 15 AUDIO\n    TITLE &quot;Look Back (Radio Edit)&quot;\n    PERFORMER &quot;Denzal Park feat. Eyelar&quot;\n    INDEX 00 49:05:48\n    INDEX 01 49:06:48\n  TRACK 16 AUDIO\n    TITLE &quot;Wings (Radio Edit)&quot;\n    PERFORMER &quot;Tom Swoon feat. Taylor Renee&quot;\n    INDEX 00 52:15:39\n    INDEX 01 52:16:39\n  TRACK 17 AUDIO\n    TITLE &quot;Finish Line (Radio Edit)&quot;\n    PERFORMER &quot;Aboutblank feat. Gemma Pavlovic&quot;\n    INDEX 00 55:54:18\n    INDEX 01 55:55:18\n  TRACK 18 AUDIO\n    TITLE &quot;Limitless (Radio Mix)&quot;\n    PERFORMER &quot;Burns&quot;\n    INDEX 00 59:19:65\n    INDEX 01 59:20:65\n  TRACK 19 AUDIO\n    TITLE &quot;City of Sin (Radio edit)&quot;\n    PERFORMER &quot;Alex Kunnari &amp; Heikki L feat. Joel Madden&quot;\n    INDEX 00 63:05:31\n    INDEX 01 63:06:31\n  TRACK 20 AUDIO\n    TITLE &quot;Live for the Night (W + W Vocal)&quot;\n    PERFORMER &quot;Krewella&quot;\n    INDEX 00 66:48:18\n    INDEX 01 66:49:18\n  TRACK 21 AUDIO\n    TITLE &quot;Animals (Radio Edit)&quot;\n    PERFORMER &quot;Martin Garrix&quot;\n    INDEX 00 71:57:02\n    INDEX 01 71:58:02\n\n\nREM GENRE Trance\nREM DATE 2013\nREM DISCID 4F12BC16\nREM COMMENT &quot;ExactAudioCopy v1.0b3&quot;\nPERFORMER &quot;Various&quot;\nTITLE &quot;Dream Dance Vol. 69 CD 2&quot;\nFILE &quot;Various - Dream Dance Vol. 69- CD 2.flac&quot; WAVE\n  TRACK 01 AUDIO\n    TITLE &quot;Thinking About You&quot;\n    PERFORMER &quot;Calvin Harris Feat. Ayah Marar&quot;\n    INDEX 01 00:00:00\n  TRACK 02 AUDIO\n    TITLE &quot;Human (Radio Edit)&quot;\n    PERFORMER &quot;Kindervater Feat. Jenson Vaughan&quot;\n    INDEX 00 04:06:19\n    INDEX 01 04:06:72\n  TRACK 03 AUDIO\n    TITLE &quot;Paint the World (Radio Edit)&quot;\n    PERFORMER &quot;Jidax &amp; Enzo Darren&quot;\n    INDEX 00 07:11:06\n    INDEX 01 07:11:59\n  TRACK 04 AUDIO\n    TITLE &quot;Open up Your Eyes (Radio Edit)&quot;\n    PERFORMER &quot;A&amp;p Feat. Viktor Weijner&quot;\n    INDEX 00 11:52:04\n    INDEX 01 11:52:57\n  TRACK 05 AUDIO\n    TITLE &quot;Just Take It (Radio Edit)&quot;\n    PERFORMER &quot;Rush Hour&quot;\n    INDEX 00 15:37:23\n    INDEX 01 15:38:01\n  TRACK 06 AUDIO\n    TITLE &quot;We Are One (Edit)&quot;\n    PERFORMER &quot;Danielle Diaz&quot;\n    INDEX 00 18:50:51\n    INDEX 01 18:51:29\n  TRACK 07 AUDIO\n    TITLE &quot;Summer Love (quick &amp; sem Edit)&quot;\n    PERFORMER &quot;Max K. Feat. Jai Matt&quot;\n    INDEX 00 22:57:15\n    INDEX 01 22:57:68\n  TRACK 08 AUDIO\n    TITLE &quot;Forrest Gump (Club Edit)&quot;\n    PERFORMER &quot;Mason Tyler&quot;\n    INDEX 00 27:07:20\n    INDEX 01 27:07:73\n  TRACK 09 AUDIO\n    TITLE &quot;I Am Free, Happy and Sad (Single Edit)&quot;\n    PERFORMER &quot;Van Der Karsten&quot;\n    INDEX 00 30:35:11\n    INDEX 01 30:35:64\n  TRACK 10 AUDIO\n    TITLE &quot;Holiday (Adrima Edit)&quot;\n    PERFORMER &quot;Youlee&quot;\n    INDEX 00 34:25:05\n    INDEX 01 34:25:58\n  TRACK 11 AUDIO\n    TITLE &quot;Little Wonders (Classic Edit)&quot;\n    PERFORMER &quot;Topmodelz&quot;\n    INDEX 00 37:46:48\n    INDEX 01 37:47:26\n  TRACK 12 AUDIO\n    TITLE &quot;Shine Your Light (Megara vs. DJ Lee Edit)&quot;\n    PERFORMER &quot;Bass-T &amp; Friends&quot;\n    INDEX 00 41:35:16\n    INDEX 01 41:35:69\n  TRACK 13 AUDIO\n    TITLE &quot;I Feel the Same (Para X Remix Edit)&quot;\n    PERFORMER &quot;Andy Jay Powell&quot;\n    INDEX 00 45:35:13\n    INDEX 01 45:35:66\n  TRACK 14 AUDIO\n    TITLE &quot;Never Believe (Original Mix Edit)&quot;\n    PERFORMER &quot;DJ Fait&quot;\n    INDEX 00 48:54:16\n    INDEX 01 48:54:69\n  TRACK 15 AUDIO\n    TITLE &quot;The Way (NRG! Edit Dream Dance)&quot;\n    PERFORMER &quot;Giorno&quot;\n    INDEX 00 52:02:12\n    INDEX 01 52:02:65\n  TRACK 16 AUDIO\n    TITLE &quot;We Are the Colors (DJ THT Remix Edit)&quot;\n    PERFORMER &quot;Alex Megane&quot;\n    INDEX 00 55:30:21\n    INDEX 01 55:30:74\n  TRACK 17 AUDIO\n    TITLE &quot;Discoland (Alex Megane NewDance Edit)&quot;\n    PERFORMER &quot;Special D.&quot;\n    INDEX 00 58:52:67\n    INDEX 01 58:53:45\n  TRACK 18 AUDIO\n    TITLE &quot;Wolo (We Only Live Once) (Dan Winter Edit)&quot;\n    PERFORMER &quot;Basslovers United&quot;\n    INDEX 00 62:24:05\n    INDEX 01 62:24:58\n  TRACK 19 AUDIO\n    TITLE &quot;Aliens Go Wow (Gainworx Remix Edit)&quot;\n    PERFORMER &quot;Cueboy &amp; Tribune&quot;\n    INDEX 00 65:21:54\n    INDEX 01 65:22:32\n  TRACK 20 AUDIO\n    TITLE &quot;Eternity (Original Edit)&quot;\n    PERFORMER &quot;Gainworx&quot;\n    INDEX 00 68:45:45\n    INDEX 01 68:46:23\n  TRACK 21 AUDIO\n    TITLE &quot;Cinematic (Original Edit)&quot;\n    PERFORMER &quot;Trance Arts Feat. Hysteria&quot;\n    INDEX 00 72:22:32\n    INDEX 01 72:23:10\n  TRACK 22 AUDIO\n    TITLE &quot;September 23rd (Original Edit)&quot;\n    PERFORMER &quot;Space Raven&quot;\n    INDEX 00 76:18:12\n    INDEX 01 76:18:65\n\n\nREM GENRE Trance\nREM DATE 2013\nREM DISCID 4912AE16\nREM COMMENT &quot;ExactAudioCopy v1.0b3&quot;\nPERFORMER &quot;Various&quot;\nTITLE &quot;Dream Dance Vol. 69 CD 3&quot;\nFILE &quot;Various - Dream Dance Vol. 69- CD 3.flac&quot; WAVE\n  TRACK 01 AUDIO\n    TITLE &quot;The One (Video Edit)&quot;\n    PERFORMER &quot;Kyau &amp; Albert&quot;\n    INDEX 01 00:00:00\n  TRACK 02 AUDIO\n    TITLE &quot;Battle of Hearts (Radio Edit)&quot;\n    PERFORMER &quot;First State Feat. Fenja&quot;\n    INDEX 00 02:39:08\n    INDEX 01 02:40:08\n  TRACK 03 AUDIO\n    TITLE &quot;Magenta&quot;\n    PERFORMER &quot;Giuseppe Ottaviani &amp; Ferry Corsten&quot;\n    INDEX 00 06:30:73\n    INDEX 01 06:31:73\n  TRACK 04 AUDIO\n    TITLE &quot;Mysteries Unfold (Uplifting Edit)&quot;\n    PERFORMER &quot;Aly &amp; Fila Feat. Sue Mclaren&quot;\n    INDEX 00 10:22:51\n    INDEX 01 10:23:51\n  TRACK 05 AUDIO\n    TITLE &quot;Higher Than the Sun (Aly &amp; Fila Remix Edit)&quot;\n    PERFORMER &quot;Roger Shah, Jes &amp; Brian Laruso&quot;\n    INDEX 00 14:15:60\n    INDEX 01 14:16:60\n  TRACK 06 AUDIO\n    TITLE &quot;The One (Radio Edit)&quot;\n    PERFORMER &quot;Simon Patterson Feat. Lucy Pullin&quot;\n    INDEX 00 18:47:46\n    INDEX 01 18:48:46\n  TRACK 07 AUDIO\n    TITLE &quot;Across the Ocean (Radio Edit)&quot;\n    PERFORMER &quot;M.I.K.E. Vs. York Feat. Asheni&quot;\n    INDEX 00 22:03:02\n    INDEX 01 22:04:02\n  TRACK 08 AUDIO\n    TITLE &quot;Rise Again (Maor Levi Remix Edit)&quot;\n    PERFORMER &quot;Ronski Speed Ft. Lucy Sauners&quot;\n    INDEX 00 25:32:50\n    INDEX 01 25:33:50\n  TRACK 09 AUDIO\n    TITLE &quot;Surrounded (Super8 &amp; Tab Radio Edit)&quot;\n    PERFORMER &quot;Bt &amp; Aqualung&quot;\n    INDEX 00 29:37:63\n    INDEX 01 29:38:63\n  TRACK 10 AUDIO\n    TITLE &quot;Daylight (Original Radio Edit)&quot;\n    PERFORMER &quot;Andre Visior Feat. Cathy Burton&quot;\n    INDEX 00 32:59:53\n    INDEX 01 33:00:53\n  TRACK 11 AUDIO\n    TITLE &quot;Reason to Believe (Steve Kaetzel Radio Edit)&quot;\n    PERFORMER &quot;Aruna&quot;\n    INDEX 00 36:41:05\n    INDEX 01 36:42:05\n  TRACK 12 AUDIO\n    TITLE &quot;Bullet That Saved Me (Festival Radio Edit)&quot;\n    PERFORMER &quot;Tritonal Feat. Underdown&quot;\n    INDEX 00 40:06:26\n    INDEX 01 40:07:26\n  TRACK 13 AUDIO\n    TITLE &quot;Somewhere Along the Way (Radio Edit)&quot;\n    PERFORMER &quot;Tube &amp; Miller&quot;\n    INDEX 00 43:45:11\n    INDEX 01 43:46:11\n  TRACK 14 AUDIO\n    TITLE &quot;Right Through Me (DD Exclusive Edit)&quot;\n    PERFORMER &quot;Ferrin &amp; Morris and Aneym&quot;\n    INDEX 00 47:31:63\n    INDEX 01 47:32:63\n  TRACK 15 AUDIO\n    TITLE &quot;Reach the Sun (Radio Edit)&quot;\n    PERFORMER &quot;Beat Service &amp; Susana&quot;\n    INDEX 00 51:01:66\n    INDEX 01 51:02:66\n  TRACK 16 AUDIO\n    TITLE &quot;Hold My Heart (Original Mix Edit)&quot;\n    PERFORMER &quot;Marc Simz Feat. Naomi Striemer&quot;\n    INDEX 00 55:02:64\n    INDEX 01 55:03:64\n  TRACK 17 AUDIO\n    TITLE &quot;How Will I Know (Daniel Kandi &amp; Dennis Pedersen Radio Edit)&quot;\n    PERFORMER &quot;Ana Criado&quot;\n    INDEX 00 58:18:52\n    INDEX 01 58:19:52\n  TRACK 18 AUDIO\n    TITLE &quot;Listen To You (Vocal Edit)&quot;\n    PERFORMER &quot;Nolita&quot;\n    INDEX 00 62:55:66\n    INDEX 01 62:56:66\n  TRACK 19 AUDIO\n    TITLE &quot;Majestic (Radio Edit)&quot;\n    PERFORMER &quot;Mike Danis&quot;\n    INDEX 00 66:33:11\n    INDEX 01 66:34:11\n  TRACK 20 AUDIO\n    TITLE &quot;Rendez-Vous (Cold Rush Remix Edit)&quot;\n    PERFORMER &quot;Thomas Petersen&quot;\n    INDEX 00 69:37:56\n    INDEX 01 69:38:56\n  TRACK 21 AUDIO\n    TITLE &quot;Eclipsed (Radio Edit)&quot;\n    PERFORMER &quot;Cold Rush&quot;\n    INDEX 00 73:16:38\n    INDEX 01 73:17:38\n  TRACK 22 AUDIO\n    TITLE &quot;Get Ya! (Radio Edit)&quot;\n    PERFORMER &quot;Holmes &amp; Watson&quot;\n    INDEX 00 76:45:67\n    INDEX 01 76:46:67\n","torrent":{"xt":"urn:btih:78e36fa4380ef605ad15cc2f21c7ee658cc85cab","amp;dn":"VA+-+Dream+Dance+vol.+69+%282013%29+%5BFLAC%5D","amp;tr":["udp%3A%2F%2Ftracker.openbittorrent.com%3A80","udp%3A%2F%2Fopen.demonii.com%3A1337","udp%3A%2F%2Ftracker.coppersurfer.tk%3A6969","udp%3A%2F%2Fexodus.desync.com%3A6969"],"infoHash":"78e36fa4380ef605ad15cc2f21c7ee658cc85cab","infoHashBuffer":{"type":"Buffer","data":[120,227,111,164,56,14,246,5,173,21,204,47,33,199,238,101,140,200,92,171]},"announce":[],"urlList":[]}}